<svg width="37" height="37" viewBox="0 0 37 37" fill="none" xmlns="http://www.w3.org/2000/svg">
<path d="M18.5 0C8.32499 0 0 8.33986 0 18.6114C0 27.8986 6.77099 35.6069 15.614 37V23.998H10.915V18.6114H15.614V14.5065C15.614 9.84438 18.3705 7.28113 22.607 7.28113C24.6235 7.28113 26.7325 7.63404 26.7325 7.63404V12.2219H24.4015C22.1075 12.2219 21.386 13.6521 21.386 15.1195V18.6114H26.529L25.6965 23.998H21.386V37C25.7454 36.3087 29.715 34.0755 32.5783 30.7034C35.4416 27.3313 37.0099 23.0426 37 18.6114C37 8.33986 28.675 0 18.5 0Z" fill="#7C4BF9"/>
</svg>
