<svg width="37" height="37" viewBox="0 0 37 37" fill="none" xmlns="http://www.w3.org/2000/svg">
<path d="M10.73 0H26.27C32.19 0 37 4.81 37 10.73V26.27C37 29.1158 35.8695 31.845 33.8573 33.8573C31.845 35.8695 29.1158 37 26.27 37H10.73C4.81 37 0 32.19 0 26.27V10.73C0 7.88423 1.13048 5.15501 3.14274 3.14274C5.15501 1.13048 7.88423 0 10.73 0ZM10.36 3.7C8.59366 3.7 6.89966 4.40168 5.65067 5.65067C4.40168 6.89966 3.7 8.59366 3.7 10.36V26.64C3.7 30.3215 6.6785 33.3 10.36 33.3H26.64C28.4063 33.3 30.1003 32.5983 31.3493 31.3493C32.5983 30.1003 33.3 28.4063 33.3 26.64V10.36C33.3 6.6785 30.3215 3.7 26.64 3.7H10.36ZM28.2125 6.475C28.8258 6.475 29.414 6.71864 29.8477 7.15232C30.2814 7.58599 30.525 8.17419 30.525 8.7875C30.525 9.40081 30.2814 9.98901 29.8477 10.4227C29.414 10.8564 28.8258 11.1 28.2125 11.1C27.5992 11.1 27.011 10.8564 26.5773 10.4227C26.1436 9.98901 25.9 9.40081 25.9 8.7875C25.9 8.17419 26.1436 7.58599 26.5773 7.15232C27.011 6.71864 27.5992 6.475 28.2125 6.475ZM18.5 9.25C20.9533 9.25 23.306 10.2246 25.0407 11.9593C26.7754 13.694 27.75 16.0467 27.75 18.5C27.75 20.9533 26.7754 23.306 25.0407 25.0407C23.306 26.7754 20.9533 27.75 18.5 27.75C16.0467 27.75 13.694 26.7754 11.9593 25.0407C10.2246 23.306 9.25 20.9533 9.25 18.5C9.25 16.0467 10.2246 13.694 11.9593 11.9593C13.694 10.2246 16.0467 9.25 18.5 9.25ZM18.5 12.95C17.028 12.95 15.6164 13.5347 14.5756 14.5756C13.5347 15.6164 12.95 17.028 12.95 18.5C12.95 19.972 13.5347 21.3836 14.5756 22.4244C15.6164 23.4653 17.028 24.05 18.5 24.05C19.972 24.05 21.3836 23.4653 22.4244 22.4244C23.4653 21.3836 24.05 19.972 24.05 18.5C24.05 17.028 23.4653 15.6164 22.4244 14.5756C21.3836 13.5347 19.972 12.95 18.5 12.95Z" fill="#7C4BF9"/>
</svg>
