<svg width="33" height="33" viewBox="0 0 33 33" fill="none" xmlns="http://www.w3.org/2000/svg">
<path d="M28.7778 0.3125C29.7318 0.3125 30.6468 0.691492 31.3214 1.3661C31.996 2.04071 32.375 2.95568 32.375 3.90972V29.0903C32.375 30.0443 31.996 30.9593 31.3214 31.6339C30.6468 32.3085 29.7318 32.6875 28.7778 32.6875H3.59722C2.64318 32.6875 1.72821 32.3085 1.0536 31.6339C0.378992 30.9593 0 30.0443 0 29.0903V3.90972C0 2.95568 0.378992 2.04071 1.0536 1.3661C1.72821 0.691492 2.64318 0.3125 3.59722 0.3125H28.7778ZM27.8785 28.191V18.6583C27.8785 17.1032 27.2607 15.6118 26.1611 14.5122C25.0615 13.4126 23.5701 12.7949 22.015 12.7949C20.4862 12.7949 18.7056 13.7301 17.8422 15.1331V13.1366H12.8241V28.191H17.8422V19.3238C17.8422 17.9389 18.9574 16.8058 20.3423 16.8058C21.0101 16.8058 21.6506 17.0711 22.1228 17.5433C22.5951 18.0155 22.8603 18.656 22.8603 19.3238V28.191H27.8785ZM6.97861 10.3128C7.78001 10.3128 8.54858 9.99443 9.11525 9.42775C9.68193 8.86108 10.0003 8.09251 10.0003 7.29111C10.0003 5.6184 8.65132 4.25146 6.97861 4.25146C6.17245 4.25146 5.3993 4.57171 4.82925 5.14175C4.25921 5.7118 3.93896 6.48495 3.93896 7.29111C3.93896 8.96382 5.3059 10.3128 6.97861 10.3128ZM9.47868 28.191V13.1366H4.49653V28.191H9.47868Z" fill="#7C4BF9"/>
</svg>
