<svg width="38" height="33" viewBox="0 0 38 33" fill="none" xmlns="http://www.w3.org/2000/svg">
<path d="M38 3.88235C36.6013 4.56176 35.0937 5.00824 33.5316 5.22176C35.13 4.19294 36.3652 2.56235 36.9465 0.601765C35.4388 1.57235 33.7677 2.25177 32.0057 2.64C30.5707 0.970588 28.5545 0 26.2658 0C21.9971 0 18.5096 3.72706 18.5096 8.32765C18.5096 8.98765 18.5822 9.62824 18.7094 10.23C12.2428 9.88059 6.4847 6.56118 2.65201 1.53353C1.97992 2.75647 1.59847 4.19294 1.59847 5.70706C1.59847 8.59941 2.9608 11.1618 5.06788 12.6176C3.7782 12.6176 2.57935 12.2294 1.52581 11.6471C1.52581 11.6471 1.52581 11.6471 1.52581 11.7053C1.52581 15.7429 4.21415 19.1206 7.77438 19.8776C7.12046 20.0718 6.43021 20.1688 5.7218 20.1688C5.23136 20.1688 4.74092 20.1106 4.26864 20.0135C5.24952 23.2941 8.10134 25.74 11.5344 25.7982C8.88241 28.05 5.52199 29.37 1.85277 29.37C1.23518 29.37 0.617591 29.3312 0 29.2535C3.45124 31.6218 7.55641 33 11.9522 33C26.2658 33 34.131 20.3047 34.131 9.29823C34.131 8.92941 34.131 8.58 34.1128 8.21117C35.6386 7.04647 36.9465 5.57118 38 3.88235Z" fill="#7C4BF9"/>
</svg>
