<svg width="90" height="91" viewBox="0 0 90 91" fill="none" xmlns="http://www.w3.org/2000/svg">
<path d="M45.24 90.083C69.9382 90.083 89.96 70.0834 89.96 45.4126C89.96 20.7418 69.9382 0.742218 45.24 0.742218C20.5419 0.742218 0.52002 20.7418 0.52002 45.4126C0.52002 70.0834 20.5419 90.083 45.24 90.083Z" fill="url(#paint0_linear_6_681)"/>
<path d="M45.2401 20.3275C31.353 20.3275 20.0966 31.6021 20.0966 45.4126C20.0966 59.2537 31.3836 70.4977 45.2401 70.4977C59.1272 70.4977 70.4142 59.2537 70.4142 45.4126C70.3836 31.5715 59.0966 20.3275 45.2401 20.3275ZM61.7883 32.1521C64.6636 35.6964 66.4072 40.1878 66.4683 45.0765C65.5201 44.8932 61.4824 44.1294 56.6495 44.1294C55.0895 44.1294 53.4377 44.221 51.8166 44.4044C51.6636 44.0683 51.5413 43.7322 51.3883 43.3961C50.9601 42.3878 50.5013 41.41 50.0118 40.4323C57.4448 37.3769 61.0542 33.1298 61.7883 32.1521ZM45.2401 24.2385C50.593 24.2385 55.4871 26.2245 59.2495 29.4938C58.6683 30.2883 55.4566 34.3214 48.2683 37.0102C44.9342 30.9604 41.3248 25.919 40.4377 24.7579C41.9672 24.4524 43.5883 24.2385 45.2401 24.2385ZM36.0942 26.3162C36.8283 27.3245 40.4683 32.3965 43.8636 38.4157C34.7177 40.8295 26.6119 40.9823 24.6542 40.9823H24.4707C25.8777 34.4742 30.2519 29.0966 36.0942 26.3162ZM23.9813 45.4432C23.9813 45.2599 23.9813 45.1071 23.9813 44.9238C24.1036 44.9238 24.2871 44.9238 24.5319 44.9238C27.1624 44.9238 36.3389 44.7099 45.7601 41.8989C46.3413 43.0294 46.8919 44.1599 47.3813 45.2904C47.1366 45.3515 46.9224 45.4127 46.6777 45.5043C36.0636 48.9264 30.2213 58.001 29.3036 59.4982C26.0001 55.74 23.9813 50.8208 23.9813 45.4432ZM45.2401 66.6479C40.3766 66.6479 35.8801 64.998 32.2707 62.2481C32.8824 61.0565 37.2871 53.1429 48.9413 49.0792C48.9413 49.0792 48.9413 49.0792 48.9718 49.0792C51.8777 56.6566 53.1319 63.0425 53.4683 65.0285C50.9295 66.0674 48.146 66.6479 45.2401 66.6479ZM57.2613 62.9203C56.986 61.3009 55.8236 55.3122 53.193 48.0403C54.6613 47.7959 56.1295 47.7042 57.4754 47.7042C61.9107 47.7042 65.3977 48.682 66.193 48.9264C65.2448 54.7012 61.9107 59.7121 57.2613 62.9203Z" fill="white"/>
<defs>
<linearGradient id="paint0_linear_6_681" x1="76.8576" y1="13.8283" x2="13.678" y2="77.078" gradientUnits="userSpaceOnUse">
<stop stop-color="#F26798"/>
<stop offset="0.8664" stop-color="#C82093"/>
<stop offset="1" stop-color="#C11592"/>
</linearGradient>
</defs>
</svg>
