<svg width="53" height="53" viewBox="0 0 53 53" fill="none" xmlns="http://www.w3.org/2000/svg">
<path d="M40.1271 9.83498C38.4141 9.83498 37.0682 11.2099 37.0682 12.8904C37.0682 14.6014 38.4447 15.9764 40.1271 15.9764C41.84 15.9764 43.2165 14.6014 43.2165 12.8904C43.1859 11.2099 41.8094 9.83498 40.1271 9.83498Z" fill="white"/>
<path d="M26.4541 13.7765C19.3271 13.7765 13.5459 19.5512 13.5459 26.6704C13.5459 33.7896 19.3271 39.5643 26.4541 39.5643C33.5812 39.5643 39.3624 33.7896 39.3624 26.6704C39.3624 19.5512 33.5812 13.7765 26.4541 13.7765ZM26.4541 34.9506C21.8965 34.9506 18.1953 31.2536 18.1953 26.701C18.1953 22.1484 21.8965 18.4513 26.4541 18.4513C31.0118 18.4513 34.713 22.1484 34.713 26.701C34.713 31.2536 31.0118 34.9506 26.4541 34.9506Z" fill="white"/>
<path d="M36.7012 52.8555H15.7788C7.09175 52.8555 0.0258789 45.7974 0.0258789 37.12V16.2208C0.0258789 7.54341 7.09175 0.485359 15.7788 0.485359H36.7012C45.3882 0.485359 52.4541 7.54341 52.4541 16.2208V37.12C52.4541 45.7974 45.3882 52.8555 36.7012 52.8555ZM15.7788 5.4046C9.81411 5.4046 4.95059 10.2627 4.95059 16.2208V37.12C4.95059 43.0781 9.81411 47.9362 15.7788 47.9362H36.7012C42.6659 47.9362 47.5294 43.0781 47.5294 37.12V16.2208C47.5294 10.2627 42.6659 5.4046 36.7012 5.4046H15.7788Z" fill="white"/>
</svg>
