<svg width="90" height="90" viewBox="0 0 90 90" fill="none" xmlns="http://www.w3.org/2000/svg">
<path d="M44.72 89.9694C69.4182 89.9694 89.44 69.9698 89.44 45.299C89.44 20.6282 69.4182 0.628601 44.72 0.628601C20.0218 0.628601 0 20.6282 0 45.299C0 69.9698 20.0218 89.9694 44.72 89.9694Z" fill="url(#paint0_linear_6_675)"/>
<path fill-rule="evenodd" clip-rule="evenodd" d="M56.833 37.1105C60.5035 39.7076 64.9694 41.2659 69.833 41.2659V31.9773C68.9153 31.9773 67.9977 31.8857 67.1106 31.7024V39.0354C62.2777 39.0354 57.7812 37.5077 54.1106 34.88V53.8542C54.1106 63.3566 46.4024 71.0563 36.8894 71.0563C33.3412 71.0563 30.0377 69.9869 27.3153 68.1536C30.4353 71.3313 34.8094 73.3173 39.6424 73.3173C49.1553 73.3173 56.8635 65.6176 56.8635 56.1152L56.833 37.1105ZM60.1977 27.7303C58.3318 25.6831 57.1082 23.0555 56.833 20.1528V18.9612H54.2635C54.8753 22.6583 57.1082 25.8054 60.1977 27.7303ZM33.3106 60.8512C32.2706 59.4762 31.6894 57.7957 31.6894 56.0847C31.6894 51.746 35.2071 48.2323 39.5812 48.2323C40.4071 48.2323 41.2024 48.3545 41.9671 48.5989V39.0965C41.0494 38.9743 40.1624 38.9132 39.2447 38.9437V46.3379C38.48 46.0934 37.6541 45.9712 36.8588 45.9712C32.5153 45.9712 28.9671 49.4849 28.9671 53.8237C28.9671 56.8791 30.7106 59.5373 33.3106 60.8512Z" fill="#EE1D52"/>
<path fill-rule="evenodd" clip-rule="evenodd" d="M54.08 34.8495C57.7506 37.4466 62.2165 39.0048 67.08 39.0048V31.6718C64.3883 31.0912 61.9718 29.6858 60.1977 27.7303C57.1083 25.8054 54.9059 22.6583 54.2636 18.9306H47.473V56.0847C47.4424 60.4234 43.9247 63.9372 39.5812 63.9372C37.0118 63.9372 34.7483 62.715 33.3106 60.8206C30.7412 59.5373 28.9671 56.8791 28.9671 53.7931C28.9671 49.4544 32.4847 45.9407 36.8589 45.9407C37.6847 45.9407 38.5106 46.0629 39.2447 46.3073V38.9132C29.8847 39.0965 22.3906 46.7351 22.3906 56.1152C22.3906 60.79 24.2565 65.0371 27.3153 68.1231C30.0683 69.9564 33.3412 71.0257 36.8894 71.0257C46.4024 71.0257 54.1106 63.326 54.1106 53.8237V34.8495H54.08Z" fill="white"/>
<path fill-rule="evenodd" clip-rule="evenodd" d="M67.08 31.6718V29.6858C64.6329 29.6858 62.247 29.0136 60.1976 27.7303C62.0023 29.7163 64.4188 31.1218 67.08 31.6718ZM54.2329 18.9306C54.1717 18.564 54.1106 18.2279 54.08 17.8613V16.6696H44.72V53.8237C44.72 58.1624 41.1717 61.6761 36.8282 61.6761C35.5435 61.6761 34.3506 61.3706 33.28 60.8512C34.7176 62.7455 36.9812 63.9677 39.5506 63.9677C43.8941 63.9677 47.4117 60.4539 47.4423 56.1152V18.9612H54.2329V18.9306ZM39.2447 38.9132V36.8049C38.4494 36.7133 37.6847 36.6521 36.8894 36.6521C27.3765 36.6521 19.6682 44.3519 19.6682 53.8542C19.6682 59.8123 22.6964 65.0677 27.3153 68.1536C24.287 65.0677 22.4212 60.8206 22.4212 56.1458C22.36 46.7351 29.8847 39.0965 39.2447 38.9132Z" fill="#69C9D0"/>
<defs>
<linearGradient id="paint0_linear_6_675" x1="13.0994" y1="13.7217" x2="76.279" y2="76.9714" gradientUnits="userSpaceOnUse">
<stop stop-color="#22004A"/>
<stop offset="0.9565" stop-color="#020003"/>
<stop offset="1"/>
</linearGradient>
</defs>
</svg>
