<svg width="90" height="90" viewBox="0 0 90 90" fill="none" xmlns="http://www.w3.org/2000/svg">
<path d="M45.28 89.4019C69.9782 89.4019 90.0001 69.4023 90.0001 44.7315C90.0001 20.0607 69.9782 0.0611115 45.28 0.0611115C20.5819 0.0611115 0.560059 20.0607 0.560059 44.7315C0.560059 69.4023 20.5819 89.4019 45.28 89.4019Z" fill="url(#paint0_linear_6_652)"/>
<path d="M69.9648 29.4238C68.4048 30.1266 66.6918 30.5543 65.0401 30.8293C65.8354 30.7071 66.9977 29.271 67.4565 28.6905C68.1601 27.8044 68.7718 26.7961 69.1083 25.6962C69.1389 25.6045 69.1695 25.5129 69.1083 25.4517C69.0166 25.4212 68.9248 25.4212 68.833 25.4823C66.9672 26.4906 65.0401 27.1933 62.9907 27.7128C62.8071 27.7433 62.6848 27.7128 62.593 27.6211C62.4095 27.4378 62.2566 27.2544 62.073 27.1017C61.2166 26.3684 60.2989 25.7878 59.2283 25.3601C57.8519 24.8101 56.353 24.5657 54.8848 24.6573C53.4471 24.749 52.0401 25.1462 50.7554 25.8184C49.4707 26.4906 48.3389 27.4072 47.4213 28.5377C46.473 29.6988 45.8001 31.0737 45.433 32.5098C45.0966 33.9153 45.1271 35.2902 45.3413 36.6957C45.3719 36.9402 45.3413 36.9707 45.1271 36.9402C37.0824 35.7486 30.4448 32.8764 25.0307 26.735C24.786 26.46 24.6636 26.46 24.4801 26.7656C22.1248 30.3099 23.2566 35.993 26.2236 38.804C26.6213 39.1706 27.0189 39.5373 27.4472 39.9039C27.2942 39.9345 25.3366 39.7206 23.5624 38.804C23.3177 38.6512 23.1954 38.7429 23.1954 39.0179C23.1648 39.4151 23.1954 39.7512 23.2566 40.1789C23.7154 43.7538 26.193 47.0842 29.6189 48.398C30.0166 48.5814 30.4754 48.7036 30.9036 48.7952C30.1389 48.9786 29.313 49.1008 27.1107 48.9175C26.8354 48.8564 26.713 49.0091 26.8354 49.2536C28.5177 53.8062 32.1271 55.1505 34.8189 55.945C35.186 56.0061 35.553 56.0061 35.9201 56.0977C35.8895 56.1283 35.8895 56.1283 35.8589 56.1588C34.9719 57.5338 31.8518 58.5421 30.4142 59.0615C27.7836 59.9781 24.9083 60.4059 22.1248 60.1309C21.666 60.0698 21.5742 60.0698 21.4518 60.1309C21.3295 60.192 21.4213 60.3142 21.5742 60.4364C22.1248 60.8031 22.706 61.1392 23.2872 61.4447C25.0613 62.3919 26.8966 63.1252 28.8236 63.6446C38.7954 66.3945 49.9907 64.3779 57.4848 56.9532C63.3577 51.1174 65.4071 43.0816 65.4071 35.0458C65.4071 34.7403 65.7742 34.5569 65.9883 34.4042C67.5177 33.2431 68.7413 31.8987 69.873 30.3404C70.1177 30.0043 70.1177 29.6988 70.1177 29.5766C70.1177 29.546 70.1177 29.546 70.1177 29.546C70.1789 29.3016 70.1789 29.3321 69.9648 29.4238Z" fill="white"/>
<defs>
<linearGradient id="paint0_linear_6_652" x1="76.8921" y1="13.1454" x2="13.7128" y2="76.3951" gradientUnits="userSpaceOnUse">
<stop stop-color="#33CCFF"/>
<stop offset="1" stop-color="#337FFF"/>
</linearGradient>
</defs>
</svg>
