<svg width="90" height="91" viewBox="0 0 90 91" fill="none" xmlns="http://www.w3.org/2000/svg">
<path d="M45.28 90.2272C69.9782 90.2272 90.0001 70.2276 90.0001 45.5568C90.0001 20.886 69.9782 0.886383 45.28 0.886383C20.5819 0.886383 0.560059 20.886 0.560059 45.5568C0.560059 70.2276 20.5819 90.2272 45.28 90.2272Z" fill="url(#paint0_linear_6_655)"/>
<path d="M21.1154 70.8252L24.8471 56.923C22.7365 53.1037 21.6354 48.8567 21.6354 44.518C21.6354 30.3713 33.1671 18.8523 47.3295 18.8523C61.4918 18.8523 73.0236 30.3713 73.0236 44.518C73.0236 58.6646 61.4918 70.1836 47.3295 70.1836C43.0777 70.1836 38.8871 69.1142 35.1247 67.067L21.1154 70.8252ZM35.7977 61.8728L36.6848 62.3922C39.9271 64.3171 43.5977 65.3254 47.3295 65.3254C58.8306 65.3254 68.16 55.9758 68.16 44.518C68.16 33.0601 58.8001 23.7105 47.3295 23.7105C35.8283 23.7105 26.4989 33.0601 26.4989 44.518C26.4989 48.3067 27.5389 52.0343 29.5577 55.3036L30.1083 56.1897L28.0283 63.9505L35.7977 61.8728Z" fill="white"/>
<path fill-rule="evenodd" clip-rule="evenodd" d="M56.8424 48.0928C55.7718 47.4512 54.3953 46.7484 53.1718 47.2678C52.2236 47.665 51.6118 49.1622 51.0001 49.9261C50.6942 50.3233 50.2965 50.3844 49.8071 50.1705C46.2283 48.7344 43.4753 46.3512 41.4871 43.0513C41.1506 42.5319 41.2118 42.1347 41.6095 41.6458C42.2212 40.9431 42.9553 40.1487 43.1083 39.2015C43.2612 38.2543 42.833 37.1544 42.4353 36.2988C41.9459 35.2294 41.3648 33.6712 40.2942 33.0601C39.2848 32.5101 38.0001 32.8156 37.113 33.5184C35.5836 34.7711 34.8495 36.696 34.8801 38.6515C34.8801 39.2015 34.9412 39.7515 35.0942 40.2709C35.4001 41.5542 35.9812 42.7458 36.6542 43.8763C37.1436 44.7318 37.6942 45.5568 38.2753 46.3512C40.2024 48.9483 42.5883 51.2093 45.3412 52.9204C46.7177 53.7759 48.2165 54.5092 49.7459 55.0286C51.4589 55.6092 53.0189 56.1897 54.8848 55.823C56.8424 55.4564 58.7695 54.2342 59.5342 52.3704C59.7483 51.8204 59.8706 51.1788 59.7483 50.5983C59.473 49.4066 57.8518 48.6733 56.8424 48.0928Z" fill="white"/>
<defs>
<linearGradient id="paint0_linear_6_655" x1="76.8921" y1="13.9523" x2="13.7128" y2="77.202" gradientUnits="userSpaceOnUse">
<stop stop-color="#60FC7C"/>
<stop offset="1" stop-color="#4AB161"/>
</linearGradient>
</defs>
</svg>
